<svg xmlns="http://www.w3.org/2000/svg" width="19" height="19" fill="none" viewBox="0 0 19 19">
  <path fill="#7CEFD3" d="M9.5 5.646a3.854 3.854 0 1 0 0 7.708 3.854 3.854 0 0 0 0-7.708ZM6.833 9.5a2.667 2.667 0 1 1 5.334 0 2.667 2.667 0 0 1-5.334 0Z"/>
  <path fill="#7CEFD3" d="M11.633 1.595c-.627-2.127-3.64-2.127-4.266 0l-.112.378c-.186.634-.91.933-1.49.618l-.346-.189c-1.947-1.06-4.078 1.07-3.017 3.017l.189.346c.315.58.016 1.304-.618 1.49l-.378.112c-2.127.627-2.127 3.64 0 4.266l.378.112c.634.187.933.91.618 1.49l-.189.346c-1.06 1.947 1.07 4.078 3.017 3.017l.346-.189a1.037 1.037 0 0 1 1.49.618l.112.378c.627 2.127 3.64 2.127 4.266 0l.112-.378c.187-.634.91-.934 1.49-.618l.346.189c1.947 1.06 4.078-1.07 3.017-3.017l-.189-.346a1.036 1.036 0 0 1 .618-1.49l.378-.112c2.127-.627 2.127-3.64 0-4.266l-.378-.112a1.037 1.037 0 0 1-.618-1.49l.189-.346c1.06-1.947-1.07-4.078-3.017-3.017l-.346.189a1.036 1.036 0 0 1-1.49-.618l-.112-.378Zm-3.127.336c.292-.991 1.696-.991 1.988 0l.112.378a2.224 2.224 0 0 0 3.197 1.324l.346-.188c.908-.494 1.9.498 1.406 1.406l-.188.346a2.224 2.224 0 0 0 1.324 3.197l.378.112c.991.292.991 1.696 0 1.988l-.378.112a2.224 2.224 0 0 0-1.324 3.197l.188.346c.494.908-.498 1.9-1.406 1.406l-.346-.188a2.224 2.224 0 0 0-3.197 1.324l-.112.378c-.292.991-1.696.991-1.988 0l-.112-.378a2.224 2.224 0 0 0-3.197-1.324l-.346.188c-.908.494-1.9-.498-1.406-1.406l.188-.346a2.224 2.224 0 0 0-1.324-3.197l-.378-.112c-.991-.292-.991-1.696 0-1.988l.378-.112a2.224 2.224 0 0 0 1.324-3.197l-.188-.346c-.494-.908.498-1.9 1.406-1.406l.346.188A2.224 2.224 0 0 0 8.394 2.31l.112-.378Z"/>
</svg>
